<svg xmlns="http://www.w3.org/2000/svg" version="1.1" xmlns:xlink="http://www.w3.org/1999/xlink" xmlns:svgjs="http://svgjs.dev/svgjs" width="2000" height="257" viewBox="0 0 2000 257"><g transform="matrix(1,0,0,1,-1.2121212121212466,-0.31757764951666445)"><svg viewBox="0 0 396 51" data-background-color="#ffffff" preserveAspectRatio="xMidYMid meet" height="257" width="2000" xmlns="http://www.w3.org/2000/svg" xmlns:xlink="http://www.w3.org/1999/xlink"><g id="tight-bounds" transform="matrix(1,0,0,1,0.2400000000000091,0.06302124562392919)"><svg viewBox="0 0 395.52 50.87395750875212" height="50.87395750875212" width="395.52"><g><svg viewBox="0 0 484.92974704956765 62.37433087108014" height="50.87395750875212" width="395.52"><g transform="matrix(1,0,0,1,0,8.620475540069688)"><svg viewBox="0 0 395.52 45.133379790940765" height="45.133379790940765" width="395.52"><g id="textblocktransform"><svg viewBox="0 0 395.52 45.133379790940765" height="45.133379790940765" width="395.52" id="textblock"><g><svg viewBox="0 0 395.52 45.133379790940765" height="45.133379790940765" width="395.52"><g transform="matrix(1,0,0,1,0,0)"><svg width="395.52" viewBox="7.08 -34.69 308.28000000000003 35.18" height="45.133379790940765" data-palette-color="#7e91c6"><path d="M7.08 0L7.08-34.69 12.94-34.69 24.07-13.65 35.38-34.69 40.87-34.69 40.87 0 36.72 0 36.72-28.74 26.05-9.94 21.9-9.94 11.23-28.74 11.23 0 7.08 0ZM60.91-24.58L60.91-24.58Q65.92-24.58 69.15-21.39 72.39-18.19 72.39-12.55L72.39-12.55Q72.39-6.57 69.08-3.04 65.77 0.49 60.52 0.49L60.52 0.49Q55.52 0.49 52.34-2.82 49.17-6.13 49.17-11.79L49.17-11.79Q49.17-17.63 52.4-21.11 55.64-24.58 60.91-24.58ZM60.57-21.17L60.57-21.17Q57.57-21.17 55.32-18.85 53.07-16.53 53.07-12.48L53.07-12.48Q53.07-8.45 55.27-5.69 57.47-2.93 60.96-2.93L60.96-2.93Q64.18-2.93 66.33-5.37 68.48-7.81 68.48-11.74L68.48-11.74Q68.48-13.99 67.78-15.82 67.09-17.65 65.95-18.8 64.82-19.95 63.43-20.56 62.03-21.17 60.57-21.17ZM94.06-24.12L98.21-24.12 89.74 0 85.59 0 77.14-24.12 81.54-24.12 87.79-3.98 94.06-24.12ZM103.83-30.08L103.83-34.69 108.56-34.69 108.56-30.08 103.83-30.08ZM104.19 0L104.19-24.12 108.2-24.12 108.2 0 104.19 0ZM127.36-24.58L127.36-24.58Q129.12-24.58 130.52-24.16 131.92-23.73 132.85-23.07 133.78-22.41 134.45-21.35 135.12-20.29 135.48-19.3 135.83-18.31 136.03-16.92 136.22-15.53 136.27-14.5 136.32-13.48 136.32-12.08L136.32-12.08 136.32-10.18 119.74-10.18Q119.74-8.86 120.34-7.56 120.94-6.25 122.02-5.16 123.11-4.08 124.88-3.39 126.65-2.71 128.8-2.71L128.8-2.71Q131.34-2.71 134.29-3.59L134.29-3.59 135-0.85Q131.07 0.49 127.28 0.49L127.28 0.49Q124.62 0.49 122.56-0.22 120.5-0.93 119.24-2.06 117.98-3.2 117.18-4.79 116.37-6.37 116.07-7.95 115.76-9.52 115.76-11.28L115.76-11.28Q115.76-13.99 116.42-16.24 117.08-18.48 118.2-20.01 119.33-21.53 120.83-22.58 122.33-23.63 123.98-24.11 125.62-24.58 127.36-24.58ZM126.5-21.12L126.5-21.12Q124.36-21.12 122.8-19.93 121.25-18.75 120.55-16.99 119.84-15.23 119.84-13.21L119.84-13.21 132.44-13.21Q132.44-21.12 126.5-21.12ZM143.15 0L143.15-3.66 164.15-3.66 164.15 0 143.15 0ZM174.89 0L174.89-34.69 180.75-34.69 191.88-13.65 203.18-34.69 208.68-34.69 208.68 0 204.53 0 204.53-28.74 193.86-9.94 189.71-9.94 179.04-28.74 179.04 0 174.89 0ZM226.18-24.58L226.18-24.58Q228.86-24.58 230.73-23.96 232.6-23.34 233.61-22.14 234.63-20.95 235.07-19.48 235.5-18.02 235.5-16.11L235.5-16.11 235.5 0 232.67 0 231.75-2.2Q228.79 0.49 224.96 0.49L224.96 0.49Q221.54 0.49 219.17-1.57 216.8-3.64 216.8-6.4L216.8-6.4Q216.8-7.86 217.34-9.03 217.88-10.21 218.89-10.99 219.9-11.77 221.2-12.32 222.49-12.87 224.21-13.16 225.93-13.45 227.67-13.57 229.4-13.7 231.48-13.7L231.48-13.7 231.48-15.6Q231.48-16.43 231.42-17.04 231.35-17.65 231.01-18.51 230.67-19.36 230.09-19.91 229.5-20.46 228.33-20.86 227.16-21.26 225.54-21.26L225.54-21.26Q223.05-21.26 219.1-20.17L219.1-20.17 218.34-23.1Q222.35-24.58 226.18-24.58ZM231.48-5.13L231.48-10.67 229.99-10.67Q228.6-10.67 227.57-10.62 226.55-10.57 225.17-10.34 223.79-10.11 222.91-9.69 222.03-9.28 221.41-8.48 220.78-7.69 220.78-6.59L220.78-6.59Q220.78-5.05 222.33-3.86 223.88-2.66 226.03-2.66L226.03-2.66Q229.18-2.66 231.48-5.13L231.48-5.13ZM258.4-24.12L262.55-24.12 254.08 0 249.93 0 241.48-24.12 245.88-24.12 252.13-3.98 258.4-24.12ZM278.91-24.58L278.91-24.58Q280.67-24.58 282.07-24.16 283.47-23.73 284.4-23.07 285.33-22.41 286-21.35 286.67-20.29 287.03-19.3 287.38-18.31 287.58-16.92 287.77-15.53 287.82-14.5 287.87-13.48 287.87-12.08L287.87-12.08 287.87-10.18 271.29-10.18Q271.29-8.86 271.89-7.56 272.49-6.25 273.57-5.16 274.66-4.08 276.43-3.39 278.2-2.71 280.35-2.71L280.35-2.71Q282.89-2.71 285.84-3.59L285.84-3.59 286.55-0.85Q282.62 0.49 278.83 0.49L278.83 0.49Q276.17 0.49 274.11-0.22 272.05-0.93 270.79-2.06 269.53-3.2 268.73-4.79 267.92-6.37 267.62-7.95 267.31-9.52 267.31-11.28L267.31-11.28Q267.31-13.99 267.97-16.24 268.63-18.48 269.75-20.01 270.88-21.53 272.38-22.58 273.88-23.63 275.53-24.11 277.17-24.58 278.91-24.58ZM278.05-21.12L278.05-21.12Q275.91-21.12 274.35-19.93 272.8-18.75 272.1-16.99 271.39-15.23 271.39-13.21L271.39-13.21 283.99-13.21Q283.99-21.12 278.05-21.12ZM295.43 0L295.43-24.12 298.24-24.12 299.12-22.07Q303.78-24.61 307.62-24.61L307.62-24.61Q309.59-24.61 311.06-23.99 312.52-23.36 313.33-22.42 314.14-21.48 314.61-20.06 315.09-18.63 315.22-17.33 315.36-16.04 315.36-14.38L315.36-14.38 315.36 0 311.35 0 311.35-14.65Q311.35-21 305.88-21L305.88-21Q303.05-21 299.44-19.12L299.44-19.12 299.44 0 295.43 0Z" opacity="1" transform="matrix(1,0,0,1,0,0)" fill="#7e91c6" class="wordmark-text-0" data-fill-palette-color="primary" id="text-0"></path></svg></g></svg></g></svg></g></svg></g><g transform="matrix(1,0,0,1,406.1749077675261,0)"><svg viewBox="0 0 78.75483928204153 62.37433087108014" height="62.37433087108014" width="78.75483928204153"><g><svg xmlns="http://www.w3.org/2000/svg" xmlns:xlink="http://www.w3.org/1999/xlink" version="1.1" x="0" y="0" viewBox="5.102 14.441 89.79599999999999 71.119" enable-background="new 0 0 100 100" xml:space="preserve" height="62.37433087108014" width="78.75483928204153" class="icon-icon-0" data-fill-palette-color="accent" id="icon-0"><path d="M76.075 14.441v5.246H26.234v-5.246H5.102v71.119h21.132v-5.028h49.841v5.028h18.823V14.441H76.075zM17.927 79.584h-4.372v-4.372h4.372V79.584zM17.927 70.476h-4.372v-4.372h4.372V70.476zM17.927 61.367h-4.372v-4.372h4.372V61.367zM17.927 52.259h-4.372v-4.372h4.372V52.259zM17.927 43.15h-4.372v-4.372h4.372V43.15zM17.927 34.042h-4.372V29.67h4.372V34.042zM17.927 24.934h-4.372v-4.372h4.372V24.934zM76.075 74.338H26.234v-48.53h49.841V74.338zM88.098 79.584h-4.372v-4.372h4.372V79.584zM88.098 70.476h-4.372v-4.372h4.372V70.476zM88.098 61.367h-4.372v-4.372h4.372V61.367zM88.098 52.259h-4.372v-4.372h4.372V52.259zM88.098 43.15h-4.372v-4.372h4.372V43.15zM88.098 34.042h-4.372V29.67h4.372V34.042zM88.098 24.934h-4.372v-4.372h4.372V24.934z" fill="#4cb175" data-fill-palette-color="accent"></path></svg></g></svg></g></svg></g><defs></defs></svg><rect width="395.52" height="50.87395750875212" fill="none" stroke="none" visibility="hidden"></rect></g></svg></g></svg>