<svg xmlns="http://www.w3.org/2000/svg" version="1.1" xmlns:xlink="http://www.w3.org/1999/xlink" xmlns:svgjs="http://svgjs.dev/svgjs" width="128" height="128" viewBox="0 0 128 128"><g transform="matrix(0.8046875,0,0,0.8046875,12.760752631578946,22.756582386801675)"><svg viewBox="0 0 95 76" data-background-color="#ffffff" preserveAspectRatio="xMidYMid meet" height="102" width="128" xmlns="http://www.w3.org/2000/svg" xmlns:xlink="http://www.w3.org/1999/xlink"><g id="tight-bounds" transform="matrix(1,0,0,1,-0.24049999999999727,0.18922201991179577)"><svg viewBox="0 0 95.481 75.62155596017641" height="75.62155596017641" width="95.481"><g><svg viewBox="0 0 95.481 75.62155596017641" height="75.62155596017641" width="95.481"><g><svg viewBox="0 0 95.481 75.62155596017641" height="75.62155596017641" width="95.481"><g id="textblocktransform"><svg viewBox="0 0 95.481 75.62155596017641" height="75.62155596017641" width="95.481" id="textblock"><g><svg viewBox="0 0 95.481 75.62155596017641" height="75.62155596017641" width="95.481"><g><svg viewBox="0 0 95.481 75.62155596017641" height="75.62155596017641" width="95.481"><g><svg xmlns="http://www.w3.org/2000/svg" xmlns:xlink="http://www.w3.org/1999/xlink" version="1.1" x="0" y="0" viewBox="5.102 14.441 89.79599999999999 71.119" enable-background="new 0 0 100 100" xml:space="preserve" height="75.62155596017641" width="95.481" class="icon-icon-0" data-fill-palette-color="accent" id="icon-0"><path d="M76.075 14.441v5.246H26.234v-5.246H5.102v71.119h21.132v-5.028h49.841v5.028h18.823V14.441H76.075zM17.927 79.584h-4.372v-4.372h4.372V79.584zM17.927 70.476h-4.372v-4.372h4.372V70.476zM17.927 61.367h-4.372v-4.372h4.372V61.367zM17.927 52.259h-4.372v-4.372h4.372V52.259zM17.927 43.15h-4.372v-4.372h4.372V43.15zM17.927 34.042h-4.372V29.67h4.372V34.042zM17.927 24.934h-4.372v-4.372h4.372V24.934zM76.075 74.338H26.234v-48.53h49.841V74.338zM88.098 79.584h-4.372v-4.372h4.372V79.584zM88.098 70.476h-4.372v-4.372h4.372V70.476zM88.098 61.367h-4.372v-4.372h4.372V61.367zM88.098 52.259h-4.372v-4.372h4.372V52.259zM88.098 43.15h-4.372v-4.372h4.372V43.15zM88.098 34.042h-4.372V29.67h4.372V34.042zM88.098 24.934h-4.372v-4.372h4.372V24.934z" fill="#4cb175" data-fill-palette-color="accent"></path></svg></g></svg></g></svg></g></svg></g></svg></g></svg></g><defs></defs></svg><rect width="95.481" height="75.62155596017641" fill="none" stroke="none" visibility="hidden"></rect></g></svg></g></svg>